inDegrees=no
num_controls=7
num_derivatives=13
num_iterations=18
num_multipliers=7
num_parameters=0
num_slacks=7
num_states=26
objective=0.460956
objective_accelerations=0.000000
objective_balance=0.001477
objective_effort=0.014337
objective_height=0.441613
objective_ligament=0.003528
solver_duration=294.798279
status=Solve_Succeeded
success=true
DataType=double
version=3
OpenSimVersion=4.5
endheader
time	/jointset/ground_pelvis/pelvis_tilt/value	/jointset/ground_pelvis/pelvis_tx/value	/jointset/ground_pelvis/pelvis_ty/value	/jointset/hip_l/hip_flexion_l/value	/jointset/hip_l/hip_adduction_l/value	/jointset/hip_l/hip_rotation_l/value	/jointset/back/lumbar_extension/value	/jointset/patellofemoral_l/patellar_flexion_l/value	/jointset/knee_l/knee_flexion_l/value	/jointset/knee_l/knee_adduction_l/value	/jointset/knee_l/knee_rotation_l/value	/jointset/ankle_l/ankle_angle_l/value	/jointset/subtalar_l/subtalar_angle_l/value	/jointset/ground_pelvis/pelvis_tilt/speed	/jointset/ground_pelvis/pelvis_tx/speed	/jointset/ground_pelvis/pelvis_ty/speed	/jointset/hip_l/hip_flexion_l/speed	/jointset/hip_l/hip_adduction_l/speed	/jointset/hip_l/hip_rotation_l/speed	/jointset/back/lumbar_extension/speed	/jointset/patellofemoral_l/patellar_flexion_l/speed	/jointset/knee_l/knee_flexion_l/speed	/jointset/knee_l/knee_adduction_l/speed	/jointset/knee_l/knee_rotation_l/speed	/jointset/ankle_l/ankle_angle_l/speed	/jointset/subtalar_l/subtalar_angle_l/speed	/forceset/tau_hip_flexion_l	/forceset/tau_hip_adduction_l	/forceset/tau_hip_rotation_l	/forceset/tau_knee_flexion_l	/forceset/tau_ankle_angle_l	/forceset/tau_subtalar_angle_l	/forceset/tau_lumbar_extension	lambda_cid13_p0	lambda_cid13_p1	lambda_cid13_p2	lambda_cid13_p3	lambda_cid13_p4	lambda_cid13_p5	lambda_cid14_p0	/jointset/ground_pelvis/pelvis_tilt/accel	/jointset/ground_pelvis/pelvis_tx/accel	/jointset/ground_pelvis/pelvis_ty/accel	/jointset/hip_l/hip_flexion_l/accel	/jointset/hip_l/hip_adduction_l/accel	/jointset/hip_l/hip_rotation_l/accel	/jointset/back/lumbar_extension/accel	/jointset/patellofemoral_l/patellar_flexion_l/accel	/jointset/knee_l/knee_flexion_l/accel	/jointset/knee_l/knee_adduction_l/accel	/jointset/knee_l/knee_rotation_l/accel	/jointset/ankle_l/ankle_angle_l/accel	/jointset/subtalar_l/subtalar_angle_l/accel	gamma_cid13_p0	gamma_cid13_p1	gamma_cid13_p2	gamma_cid13_p3	gamma_cid13_p4	gamma_cid13_p5	gamma_cid14_p0
1.5	-0.231961090809268	0.0935548400661189	0.8690277564481325	0.531160171871028	-0.2899871175671662	-0.3238054692889761	-0.1500276633703707	0.3087245785655727	0.3087245785655667	0.005705146411657844	-0.001457284344432234	0.08654681292065819	0.1324970001967759	0.3577183276106435	0.007823886383140207	0.07929068198808101	-0.6382505469001346	0.1192103060764642	-0.1191872580447964	0.08721797882857983	-0.4865337079632077	-0.4865337079632076	0.07334492417739973	0.02618210490322211	-0.1996189784309713	0.01218592742832278	-0.1078071841164735	0.1226303980369182	-0.00260522911855625	-0.03614692853309084	-0.08038375946613796	-0.02248251703377903	0.1165845655017557	-61.90474097314546	16.05305070256918	2.302185050753505	17.8468275047535	-544.5923941109884	-23.05041893709709	-38.29626532263789	0.5175134314815654	-0.1841567793187162	0.008814796644941643	-0.4027699518427781	0.1987307817195675	-0.07565211712712717	0.2372502530827123	-0.2954202234735133	-0.2954202234735133	0.2717459444327297	-0.05418620287452806	-0.3282981091751579	0.01724831801563761	-1.47288363367278e-08	3.457670755435102e-08	3.922986618344232e-08	7.433250477641106e-09	-1.319641120708815e-08	-9.385751677742789e-09	-6.334676328019809e-09
1.51	-0.228358425566478	0.09362376360726896	0.8698209593090187	0.5247585936475649	-0.2887851489648137	-0.3250012316854838	-0.1491435086050342	0.3038453615098348	0.3038453615098279	0.006452421371475151	-0.00119853830826509	0.08453451389142265	0.1326198428787985	0.362788882467699	0.005950596428543402	0.07933762485213472	-0.6419807392028529	0.1211718728402697	-0.1199462591537749	0.08961094170496718	-0.4892288518053342	-0.489228851805334	0.07611411735033391	0.02555852746489743	-0.202814053972119	0.01238617539094394	-0.1055935423460061	0.1216116474827988	-0.002570547593479958	-0.03650281666262046	-0.07851985906173703	-0.02269672450937573	0.1149563883050902	-61.31242524996087	16.06693264353309	2.271916362076444	17.88083011143224	-544.1336977935567	-23.18559208848869	-38.33290979757742	0.4979469658837827	-0.1904475571941135	0.0007921144853132119	-0.3454940971379554	0.1931295130788286	-0.07318388086075864	0.2400144247650703	-0.2444323644922295	-0.2444323644922129	0.2801222743732834	-0.06772409460737529	-0.3110972575705974	0.02193834356396161	-1.500691782743645e-08	3.261500841374341e-08	4.08672258907314e-08	7.012606913171391e-09	-1.147041641076648e-08	-1.059993756344715e-08	-6.751640829220869e-09
1.52	-0.2247058306845184	0.0936736477581397	0.8706142632151858	0.5183222434555369	-0.2875639127169528	-0.3262040160476899	-0.1482354851869659	0.2989416188356908	0.2989416188356858	0.007227511517107403	-0.0009462841625156463	0.08249106711057816	0.1327447931020823	0.3677042554474356	0.00401600832728286	0.07931089104425852	-0.6452049406116401	0.1230638351787738	-0.1205916511858465	0.09199170937532219	-0.4914388316438615	-0.4914388316438614	0.07890796134924334	0.02488372681473697	-0.2058485287527087	0.01260743568070546	-0.1033799005754922	0.1205928969287123	-0.002535866068525835	-0.03685870479214221	-0.07665595865732638	-0.02291093198492323	0.1133282111084476	-60.72250393288749	16.08122474746181	2.241592684140093	17.92920376954526	-543.7050032172492	-23.32180986970465	-38.36740673653215	0.4864770560177579	-0.1964164086514989	-0.005920537741040545	-0.3015717730565328	0.1848098966593057	-0.05293030174577987	0.2348112118762137	-0.1983874227537414	-0.1983874227537414	0.2766761096278541	-0.0644308452416974	-0.2961779570636351	0.02145078344372024	-1.489471879775863e-08	2.983763192734411e-08	4.143398219062159e-08	6.412142541902203e-09	-9.66779145266861e-09	-1.156322137924512e-08	-6.97489324134752e-09
1.53	-0.2210048175062798	0.09370390428942967	0.8714069472234264	0.5118560752159332	-0.2863241025659209	-0.3274126497966988	-0.1473037781385208	0.2940181544076697	0.2940181544076645	0.008030643945293828	-0.0007009770070032818	0.08041808999315274	0.132872071021728	0.3724728878870965	0.00202737461969407	0.07921457599484265	-0.6479491524049591	0.1248862363728966	-0.1211163184144655	0.09434548658325381	-0.4931749872213594	-0.4931749872213592	0.08172158791600977	0.02417034461544993	-0.2087179407828716	0.01285269858869117	-0.1010211961500503	0.1194528709042402	-0.002495668685794962	-0.03749261892358839	-0.07440924965151353	-0.02309519390577495	0.1115985632223575	-60.00781562083171	16.07738661376617	2.195060124662062	17.88478007132993	-543.2757421278596	-23.47747696751433	-38.39966893281673	0.4682290752853543	-0.2012743091235148	-0.01318853491014427	-0.2489162258926083	0.1791535787193189	-0.04942233906786094	0.235028915576398	-0.1493682141526122	-0.1493682141525685	0.2841730463051186	-0.07589017142195525	-0.2779808581929977	0.02673821420306303	-1.436784671517019e-08	2.619359826104115e-08	4.086322237015047e-08	5.620618563408577e-09	-7.783746947683537e-09	-1.225992174576754e-08	-6.992326558832609e-09
1.54	-0.2172568834561911	0.09371403699218103	0.8721983277718994	0.5053648507897034	-0.2850664287333667	-0.3286259676991155	-0.1463486597299335	0.2890797007060907	0.2890797007060866	0.008862006062327166	-0.0004630233262893646	0.07831728714898509	0.1330019364043982	0.3770884298205947	-8.757380434797867e-06	0.07905019909076591	-0.6502161779352036	0.1266365714842295	-0.1215284818689919	0.09667398140421078	-0.4944366863550496	-0.4944366863550492	0.08455389912693272	0.02341303185017502	-0.211413674101051	0.01312492828575549	-0.09866249172455932	0.1183128448798022	-0.002455471303184684	-0.0381265330550255	-0.07216254064569065	-0.0232794558265756	0.1098689153362913	-59.29505909673668	16.07416711492436	2.148108696438413	17.8546038040292	-542.8689607741115	-23.6323760418936	-38.42961786993815	0.4558589547851699	-0.2059160671595267	-0.01953290867320946	-0.2061345204415817	0.1703966801013574	-0.03042954692727888	0.2297547344812322	-0.103496133992225	-0.103496133992225	0.2804130384592117	-0.07321695843927128	-0.2614422146669778	0.02684414125946096	-1.364694759421848e-08	2.162045877178264e-08	4.02472661470558e-08	4.601480844991671e-09	-5.868993589281408e-09	-1.326541559258261e-08	-6.963864572790897e-09
1.55	-0.2134635198726496	0.09370360076896772	0.8729877409077993	0.49885322534251	-0.2837916079611374	-0.3298427945954641	-0.1453704425345413	0.2841309453580229	0.2841309453580199	0.00972176369947131	-0.0002327871065823917	0.07619040788614848	0.1331346714114078	0.3815592613115252	-0.002083569595131755	0.07882213281563627	-0.6520356199328424	0.1283150785541435	-0.1218186508893261	0.09896316449834372	-0.495238150718503	-0.4952381507185027	0.08739910639080274	0.0226280548856967	-0.2139309493678834	0.01342750816330834	-0.09614884526096192	0.1170359238774735	-0.002406367823305233	-0.03907629398246781	-0.06948869659973077	-0.02342596291442557	0.1080319295135288	-58.44346645918075	16.04939708677759	2.082712683381558	17.7181417190428	-542.4732260498996	-23.81268255307245	-38.45718185003453	0.4389386121703105	-0.2090256268825871	-0.02598834504989407	-0.1588581744812144	0.1646956842388652	-0.02557859875967175	0.2275561203597688	-0.0570353391818822	-0.05703533918184672	0.2868019373763828	-0.08205578272663769	-0.2421870585417152	0.03277369882754177	-1.270249558123952e-08	1.597682779085801e-08	3.957923580789486e-08	3.320092513184911e-09	-3.918858291072671e-09	-1.462669323190874e-08	-6.882523215294394e-09
1.56	-0.2096261993010312	0.09367226405795537	0.8737745644093247	0.49232560364832	-0.2825003785254552	-0.331061976785842	-0.1443695223035137	0.2791764626159879	0.2791764626159849	0.01061001888261842	-1.058419995209765e-05	0.07403929249547266	0.1332705939747567	0.3858798274394237	-0.004188854940240669	0.07853227221588309	-0.6534154273327325	0.1299183041761435	-0.1219995406765788	0.1012145885317298	-0.4955821651483558	-0.4955821651483555	0.09025340833568442	0.02180636923023968	-0.2162608996687302	0.01376243955383079	-0.09363519879731164	0.1157590028751805	-0.002357264343546521	-0.04002605490990096	-0.06681485255376056	-0.02357247000222241	0.1061949436907924	-57.59335229761425	16.02550790800057	2.016465825139068	17.5956864567538	-542.0926303468807	-23.99024184142828	-38.48229735473277	0.4258058821787149	-0.2120106932419057	-0.03189177359791791	-0.1182076008918012	0.1553403905185946	-0.008573700310983852	0.2222029223317971	-0.01200614727213256	-0.01200614727213256	0.2822319746615718	-0.08055869663499633	-0.223977221469864	0.03331444385340564	-1.146041404962345e-08	9.464017316709292e-09	3.855979613350689e-08	1.821943175886718e-09	-1.936067038758867e-09	-1.612220395739039e-08	-6.690228023269286e-09
1.57	-0.2057463872782798	0.0936197573250475	0.8745581966599526	0.485786263459215	-0.2811934852483672	-0.3322823558705432	-0.1433463309461476	0.2742207721186645	0.2742207721186627	0.01152685046053198	0.000203313774515982	0.07186583393354368	0.133410049708249	0.3900578780532963	-0.006314186128975607	0.07818490531390977	-0.6543858676183059	0.13144769012018	-0.1220592744044196	0.1034157259933113	-0.495482366724123	-0.4954823667241226	0.09311394958098594	0.02096804235103721	-0.2183965223428696	0.01413603990897557	-0.09095600624757662	0.1143289439982492	-0.00229519604904592	-0.04132956548888366	-0.06366760337093698	-0.02367307409912809	0.1042441013264934	-56.58946543679428	15.9764940246739	1.929397385478153	17.35213199840556	-541.7315149351009	-24.19919184652964	-38.50490879073379	0.4100979658457102	-0.2130486978722083	-0.03754978733300718	-0.07645260790744153	0.1498342443007674	-0.002128480461748931	0.2178756156820607	0.03200920967930732	0.03200920967934186	0.2881245167728089	-0.08624121369907799	-0.2032125002465182	0.04047897128535503	-9.846295619710979e-09	1.864732476030483e-09	3.710109479008513e-08	5.284258172423391e-11	8.75441561862716e-11	-1.778550604056642e-08	-6.359240538083424e-09
